<?xml version="1.0" standalone="no"?>
<!DOCTYPE svg PUBLIC "-//W3C//DTD SVG 20010904//EN"
 "http://www.w3.org/TR/2001/REC-SVG-20010904/DTD/svg10.dtd">
<svg version="1.0" xmlns="http://www.w3.org/2000/svg"
 width="1836.000000pt" height="1836.000000pt" viewBox="0 0 1836.000000 1836.000000"
 preserveAspectRatio="xMidYMid meet">
<metadata>
Created by potrace 1.14, written by Peter Selinger 2001-2017
</metadata>
<g transform="translate(0.000000,1836.000000) scale(0.100000,-0.100000)"
fill="#000000" stroke="none">
<path d="M14821 16115 c-87 -19 -162 -45 -187 -64 -12 -9 -32 -23 -44 -31 -63
-42 -137 -131 -166 -199 -51 -122 -68 -297 -39 -416 22 -92 19 -172 -12 -267
-43 -134 -173 -367 -173 -310 0 56 -36 194 -67 261 -39 82 -101 151 -184 203
-69 44 -95 54 -198 74 -183 36 -393 -22 -578 -158 -34 -25 -70 -53 -79 -63 -9
-9 -27 -23 -40 -32 -74 -48 -280 -341 -300 -425 -1 -5 -3 -10 -4 -13 -1 -3 -3
-8 -5 -12 -1 -5 -7 -20 -13 -35 -32 -77 -90 -333 -111 -491 -10 -74 -14 -109
-30 -277 l-7 -75 -28 115 c-60 246 -145 406 -299 564 -133 136 -242 205 -387
246 -118 33 -209 36 -313 11 -120 -29 -190 -64 -257 -130 -76 -75 -124 -152
-166 -269 -94 -259 -255 -503 -421 -634 -32 -25 -67 -54 -78 -65 -25 -23 -123
-93 -131 -93 -3 0 -20 -11 -37 -24 -53 -41 -316 -171 -427 -211 -25 -9 -58
-24 -75 -33 -16 -9 -30 -15 -30 -13 0 6 -61 -12 -72 -22 -7 -5 -13 -7 -13 -4
0 3 -15 0 -34 -8 -18 -8 -44 -16 -57 -19 -13 -3 -78 -19 -144 -35 -273 -69
-535 -100 -925 -111 -436 -12 -806 -56 -1170 -140 -74 -17 -144 -33 -155 -35
-11 -3 -45 -12 -75 -20 -30 -8 -66 -18 -80 -21 -14 -3 -49 -14 -78 -24 -29
-11 -59 -20 -67 -20 -7 0 -26 -5 -42 -12 -15 -6 -31 -12 -35 -13 -5 -2 -9 -3
-10 -5 -2 -1 -10 -3 -18 -5 -21 -4 -191 -64 -215 -75 -11 -5 -42 -18 -70 -29
-27 -11 -68 -27 -90 -37 -22 -10 -42 -18 -45 -19 -10 -3 -86 -37 -140 -63 -30
-15 -58 -25 -62 -24 -5 1 -8 -2 -8 -7 0 -9 -60 -37 -72 -33 -5 1 -8 -1 -8 -6
0 -4 -15 -14 -32 -21 -26 -12 -185 -101 -293 -165 -176 -104 -408 -268 -615
-434 -211 -170 -598 -558 -745 -747 -16 -21 -51 -65 -77 -98 l-48 -59 -31 68
c-17 38 -33 82 -36 98 -6 27 -23 60 -102 193 -23 37 -53 67 -111 107 -44 31
-82 56 -85 56 -4 0 -25 12 -48 28 -23 15 -49 28 -57 30 -8 2 -22 9 -30 16 -8
7 -35 19 -60 26 -71 21 -100 39 -151 91 -26 26 -59 51 -73 55 -14 3 -26 10
-26 14 0 5 -13 11 -29 15 -16 3 -35 13 -42 21 -7 8 -26 22 -43 29 -41 19 -94
50 -114 67 -9 8 -46 29 -82 48 -36 18 -81 42 -100 53 -50 29 -129 67 -138 67
-4 0 -18 10 -32 23 -33 30 -95 73 -96 67 0 -3 -32 15 -70 40 -93 60 -247 134
-311 150 -53 12 -108 9 -153 -8 -14 -5 -28 -10 -32 -11 -4 -1 -23 -8 -42 -16
-20 -8 -39 -15 -43 -15 -5 0 -31 -21 -60 -47 -160 -150 -195 -289 -131 -523
16 -58 31 -112 33 -120 6 -27 112 -206 210 -355 18 -27 41 -66 51 -85 20 -39
20 -104 -1 -135 -12 -20 -132 -85 -156 -85 -6 0 -23 -8 -37 -19 -15 -10 -38
-22 -52 -26 -43 -13 -154 -68 -174 -87 -11 -10 -23 -18 -27 -18 -14 0 -65 -84
-83 -135 -40 -117 -47 -164 -36 -244 21 -151 81 -327 131 -383 27 -29 122 -88
144 -88 8 0 40 -13 72 -30 31 -16 62 -30 67 -30 5 0 25 -10 45 -22 20 -13 38
-23 41 -24 34 -4 84 -22 136 -50 35 -19 64 -31 64 -28 0 3 12 -1 27 -10 16 -8
55 -22 88 -31 33 -10 74 -26 91 -36 17 -11 38 -19 46 -19 9 0 21 -6 27 -14 7
-8 24 -17 38 -21 15 -3 39 -15 54 -26 15 -10 33 -19 41 -19 8 0 33 -9 56 -20
22 -11 46 -20 52 -20 15 0 102 -39 120 -55 8 -7 29 -15 46 -18 18 -3 49 -18
69 -32 21 -14 44 -25 52 -25 7 0 30 -7 51 -17 20 -9 40 -17 44 -17 4 -1 13 -7
20 -14 6 -6 21 -12 31 -12 10 0 34 -7 52 -16 l33 -15 -30 -97 c-32 -109 -107
-415 -132 -537 -129 -660 -128 -1370 5 -2030 52 -261 142 -597 181 -680 5 -12
10 -27 12 -35 3 -22 25 -87 52 -158 13 -34 36 -92 50 -130 14 -37 34 -85 44
-107 10 -22 30 -67 45 -100 15 -33 45 -97 67 -142 22 -45 39 -85 38 -89 -1 -4
2 -10 7 -13 8 -6 19 -25 77 -135 20 -38 45 -80 55 -95 10 -14 21 -33 25 -41
33 -71 334 -514 366 -540 4 -3 11 -12 16 -21 12 -22 64 -88 91 -116 12 -13 26
-30 30 -38 38 -66 459 -494 638 -646 77 -66 147 -126 155 -133 15 -13 179
-136 278 -208 61 -44 342 -221 427 -268 69 -39 428 -219 471 -237 41 -17 125
-53 149 -63 80 -34 431 -155 480 -165 11 -2 20 -4 20 -5 0 -1 8 -3 18 -6 26
-6 41 -10 57 -17 13 -5 89 -23 130 -32 8 -2 51 -12 95 -24 44 -11 96 -23 115
-26 19 -3 68 -12 108 -21 101 -20 380 -60 537 -76 80 -8 257 -13 460 -13 381
1 519 12 950 80 22 4 72 14 110 22 39 8 89 19 111 24 23 4 79 18 125 29 46 12
92 23 102 25 35 7 213 57 242 68 17 7 32 12 35 12 4 1 41 12 100 31 8 3 17 5
20 6 3 0 13 4 23 10 10 5 28 11 40 13 24 5 37 10 217 84 69 29 133 54 142 56
10 2 30 11 45 19 33 19 122 56 126 53 1 -1 9 4 17 11 8 7 58 34 110 61 52 26
116 60 142 74 25 14 49 23 52 20 3 -4 6 -1 6 5 0 7 15 19 33 27 17 8 46 24 62
35 17 11 37 23 45 27 8 4 20 11 25 15 6 4 71 48 147 97 111 73 252 172 303
213 6 5 53 43 105 84 199 160 436 385 609 579 34 39 70 79 80 90 25 27 135
164 197 245 142 186 319 458 417 640 22 41 44 77 48 78 5 2 9 10 9 17 0 17 81
178 95 187 5 4 6 8 2 8 -5 0 -1 12 7 28 15 27 59 122 61 132 5 26 18 50 27 50
6 0 9 3 5 6 -3 3 5 30 18 60 13 30 22 54 19 54 -2 0 2 13 10 28 21 41 130 356
141 406 2 12 9 37 15 56 12 38 17 57 25 92 5 24 36 130 62 211 8 26 16 53 17
60 2 7 6 19 9 27 3 8 18 51 32 94 31 92 150 340 175 366 3 3 28 39 55 80 67
100 243 277 330 332 39 24 115 66 170 92 55 26 131 63 169 82 37 19 74 34 82
34 8 0 14 4 14 9 0 5 21 18 48 30 83 39 183 106 292 197 74 61 184 175 204
211 5 10 15 23 21 28 20 17 65 83 65 94 0 6 3 11 8 11 4 0 15 15 26 33 30 52
115 221 115 230 0 4 8 21 17 38 13 26 26 62 49 139 1 3 4 12 8 20 14 35 58
233 74 330 32 203 21 521 -26 750 -5 25 -12 59 -15 75 -4 17 -9 37 -13 45 -3
8 -7 21 -9 28 -1 7 -18 46 -37 85 -33 71 -114 166 -182 214 -16 12 -28 23 -25
25 297 229 498 444 633 678 22 39 70 132 72 140 0 3 8 21 17 40 13 28 38 98
43 120 1 3 9 30 19 61 9 31 18 65 20 75 2 11 11 49 20 85 29 126 40 317 27
469 -7 76 -16 153 -21 171 -5 19 -11 48 -14 64 -8 45 -37 168 -43 185 -4 8 -7
17 -8 20 -102 337 -306 651 -480 740 -27 14 -51 25 -54 26 -3 0 -27 6 -54 14
l-47 12 35 49 c19 27 35 52 35 55 0 3 8 18 19 32 17 24 41 66 91 157 9 17 26
55 39 85 12 30 26 64 31 75 42 96 104 364 121 524 14 135 7 372 -16 510 -14
87 -60 287 -73 321 -3 8 -6 18 -7 23 -2 4 -4 9 -5 12 -1 3 -3 8 -4 13 -8 34
-42 131 -54 149 -7 12 -14 26 -14 30 -2 26 -99 227 -140 289 -16 23 -28 44
-28 47 0 3 -16 28 -35 56 -143 213 -334 421 -465 507 -65 43 -123 75 -140 78
-3 1 -10 4 -16 8 -18 12 -211 48 -251 47 -21 0 -67 -7 -102 -14z"/>
</g>
</svg>
